<svg role="img" viewBox="0 0 100 100" xmlns="http://www.w3.org/2000/svg"><title>hh</title><g transform="translate(0,100) scale(0.1,-0.1)"><path d="M383 986 c-219 -53 -383 -261 -383 -486 0 -270 230 -500 500 -500 270 0 500 230 500 500 0 274 -233 503 -508 499 -31 0 -80 -6 -109 -13z m-103 -332 l0 -85 26 20 c50 40 146 18 161 -37 4 -15 8 -79 8 -142 l0 -115 -36 -3 -36 -3 -5 115 c-6 122 -14 146 -53 146 -45 0 -60 -33 -65 -148 l-5 -107 -37 -3 -38 -3 0 225 0 226 40 0 40 0 0 -86z m318 -2 l3 -83 26 21 c40 31 98 27 134 -9 l29 -29 0 -132 0 -131 -37 3 -38 3 -3 115 c-2 94 -6 117 -19 128 -22 16 -45 15 -69 -2 -16 -12 -20 -30 -24 -128 l-5 -113 -37 -3 -38 -3 0 226 0 226 38 -3 37 -3 3 -83z"/></g></svg>
